<?xml version="1.0" encoding="utf-8"?>
<!-- Generator: Adobe Illustrator 21.0.2, SVG Export Plug-In . SVG Version: 6.00 Build 0)  -->
<svg version="1.1" id="Find" xmlns="http://www.w3.org/2000/svg" xmlns:xlink="http://www.w3.org/1999/xlink" x="0px" y="0px"
	 viewBox="0 0 139 139" style="enable-background:new 0 0 139 139;" xml:space="preserve">
<style type="text/css">
	.st0{fill:#E54155;}
</style>
<path class="st0" d="M127.6,112l-27.3-27.3c4.6-7.4,7.3-16.1,7.3-25.5c0-26.5-21.5-48-48-48s-48,21.5-48,48c0,26.5,21.5,48,48,48
	c10.2,0,19.6-3.2,27.4-8.6l27,27c1.9,1.9,4.3,2.8,6.8,2.8c2.5,0,4.9-0.9,6.8-2.8C131.3,121.8,131.3,115.7,127.6,112z M59.6,91.6
	c-17.9,0-32.4-14.5-32.4-32.4s14.5-32.4,32.4-32.4C77.5,26.7,92,41.2,92,59.2S77.5,91.6,59.6,91.6z"/>
</svg>
